; NON-PLATED HOLES START AT T1
; THROUGH (PLATED) HOLES START AT T100
M48
INCH
T1C0.125984
T100C0.015748
T101C0.035000
T102C0.040000
T103C0.042000
T104C0.038000
%
T1
X037722Y028074
X037722Y002074
X001722Y028074
X001722Y002074
T100
X029722Y023074
X014722Y016073
X019710Y014073
X013722Y024074
X017722Y012073
T101
X029722Y024074
X004781Y022629
X024722Y006074
X018781Y012629
X011722Y018074
X011722Y008074
X024337Y020405
X024337Y010405
X009722Y018074
X020722Y006074
X018781Y022629
X026722Y014074
X027722Y008074
X023722Y018074
X025722Y018074
X033722Y018074
X027722Y018074
X031722Y006074
X012722Y017074
X029722Y018074
X023722Y008073
X016722Y017074
X007722Y008074
X018729Y008021
X026722Y008074
X013722Y018074
X023722Y022629
X012722Y018074
X029722Y014074
X009722Y022629
X033722Y014074
X026722Y018074
X029722Y006074
X022722Y014074
X004729Y018021
X018729Y018021
X010337Y020405
X031722Y010074
X025722Y008074
X029722Y028074
X023722Y012629
X029722Y010074
T102
X013722Y009074
X033722Y025974
X008722Y027074
X035722Y011074
X012722Y009074
X032722Y003074
X035722Y015074
X011722Y015074
X034722Y003074
X029722Y003074
X014722Y015074
X035722Y013974
X035722Y019074
X019722Y027074
X010722Y003074
X027722Y003074
X006722Y003074
X007722Y009074
X006722Y015074
X027722Y027074
X035722Y008074
X007722Y015074
X004722Y015074
X005722Y009074
X010722Y027074
X014722Y009074
X004722Y009074
X003722Y013574
X016722Y027074
X011722Y009074
X006722Y009074
X012722Y015074
X005722Y015074
X035722Y006974
X033722Y021974
X021722Y027074
X008172Y013923
X003722Y011574
X035722Y009974
X035722Y017974
X003722Y010574
X004722Y003074
X025722Y027074
X009722Y009074
X009172Y013923
X014722Y027074
X008722Y015074
X009722Y015074
X004722Y028074
X005822Y028074
X015722Y015074
X012722Y003074
X003722Y009574
X010722Y009074
X033722Y027074
X013722Y015074
X008722Y009074
X003722Y014574
X003722Y012574
X033722Y023074
X010722Y015074
X015722Y009074
T103
X011722Y019074
X025722Y019074
X025722Y022054
X025722Y012054
X025722Y009074
X011722Y022054
T104
X001722Y010576
X001722Y021074
X001722Y023074
X001722Y012576
X002722Y023074
X001722Y013576
X002722Y021074
X002722Y025074
X001722Y025074
X001722Y011576
X001722Y009576
T00
M30
