G04 MADE WITH FRITZING*
G04 WWW.FRITZING.ORG*
G04 DOUBLE SIDED*
G04 HOLES PLATED*
G04 CONTOUR ON CENTER OF CONTOUR VECTOR*
%ASAXBY*%
%FSLAX23Y23*%
%MOIN*%
%OFA0B0*%
%SFA1.0B1.0*%
%ADD10C,0.085000*%
%ADD11C,0.092000*%
%ADD12C,0.049370*%
%ADD13C,0.084000*%
%ADD14C,0.088000*%
%ADD15C,0.135984*%
%ADD16C,0.090000*%
%ADD17R,0.092000X0.092000*%
%ADD18R,0.085000X0.085000*%
%ADD19R,0.090000X0.090000*%
%ADD20R,0.001000X0.001000*%
%LNMASK0*%
G90*
G70*
G54D10*
X772Y807D03*
X1172Y807D03*
X2972Y2807D03*
X2972Y2407D03*
X2672Y1407D03*
X2272Y1407D03*
X2472Y607D03*
X2072Y607D03*
X1272Y1707D03*
X1672Y1707D03*
X2972Y1007D03*
X2972Y607D03*
X3372Y1807D03*
X2972Y1807D03*
X3372Y1407D03*
X2972Y1407D03*
X3172Y607D03*
X3172Y1007D03*
G54D11*
X2572Y1205D03*
X2572Y907D03*
X1172Y2205D03*
X1172Y1907D03*
X2572Y2205D03*
X2572Y1907D03*
G54D12*
X1472Y1607D03*
X2972Y2307D03*
X1372Y2407D03*
G54D13*
X582Y2807D03*
X472Y2807D03*
X3372Y2597D03*
X3372Y2707D03*
X3372Y2197D03*
X3372Y2307D03*
X3572Y1797D03*
X3572Y1907D03*
X3572Y697D03*
X3572Y807D03*
X3572Y997D03*
X3572Y1107D03*
X3572Y1397D03*
X3572Y1507D03*
G54D12*
X1772Y1207D03*
G54D14*
X272Y2107D03*
X172Y2107D03*
X272Y2307D03*
X172Y2307D03*
X272Y2507D03*
X172Y2507D03*
X172Y1358D03*
X172Y1258D03*
X172Y1158D03*
X172Y1058D03*
X172Y958D03*
G54D15*
X172Y207D03*
X172Y2807D03*
X3772Y2807D03*
X3772Y207D03*
G54D12*
X1971Y1407D03*
G54D13*
X372Y1457D03*
X372Y1357D03*
X372Y1257D03*
X372Y1157D03*
X372Y1057D03*
X372Y957D03*
X472Y1507D03*
X572Y1507D03*
X672Y1507D03*
X772Y1507D03*
X872Y1507D03*
X817Y1392D03*
X917Y1392D03*
X972Y1507D03*
X1072Y1507D03*
X1172Y1507D03*
X1272Y1507D03*
X1372Y1507D03*
X1472Y1507D03*
X1572Y1507D03*
X1572Y907D03*
X1472Y907D03*
X1372Y907D03*
X1272Y907D03*
X1172Y907D03*
X1072Y907D03*
X972Y907D03*
X872Y907D03*
X772Y907D03*
X672Y907D03*
X572Y907D03*
X472Y907D03*
G54D10*
X2372Y2263D03*
X1878Y2263D03*
X1873Y1802D03*
X2434Y2041D03*
X2372Y1807D03*
X2372Y1263D03*
X1878Y1263D03*
X1873Y802D03*
X2434Y1041D03*
X2372Y807D03*
X972Y2263D03*
X478Y2263D03*
X473Y1802D03*
X1034Y2041D03*
X972Y1807D03*
X2572Y1807D03*
X2672Y1807D03*
X2772Y1807D03*
X2572Y807D03*
X2672Y807D03*
X2772Y807D03*
X1172Y1807D03*
X1272Y1807D03*
X1372Y1807D03*
G54D16*
X1272Y307D03*
X1072Y307D03*
X1472Y2707D03*
X1672Y2707D03*
X1972Y2707D03*
X2172Y2707D03*
X872Y2707D03*
X1072Y2707D03*
X2572Y2707D03*
X2772Y2707D03*
X672Y307D03*
X472Y307D03*
X3472Y307D03*
X3272Y307D03*
X2972Y307D03*
X2772Y307D03*
G54D17*
X2572Y1206D03*
X1172Y2206D03*
X2572Y2206D03*
G54D18*
X2372Y2263D03*
X2372Y1263D03*
X972Y2263D03*
G54D19*
X1272Y307D03*
X1472Y2707D03*
X1972Y2707D03*
X872Y2707D03*
X2572Y2707D03*
X672Y307D03*
X3472Y307D03*
X2972Y307D03*
G54D20*
X541Y2849D02*
X624Y2849D01*
X541Y2848D02*
X624Y2848D01*
X541Y2847D02*
X624Y2847D01*
X541Y2846D02*
X624Y2846D01*
X541Y2845D02*
X624Y2845D01*
X541Y2844D02*
X624Y2844D01*
X541Y2843D02*
X624Y2843D01*
X541Y2842D02*
X624Y2842D01*
X541Y2841D02*
X624Y2841D01*
X541Y2840D02*
X624Y2840D01*
X541Y2839D02*
X624Y2839D01*
X541Y2838D02*
X624Y2838D01*
X541Y2837D02*
X624Y2837D01*
X541Y2836D02*
X624Y2836D01*
X541Y2835D02*
X624Y2835D01*
X541Y2834D02*
X624Y2834D01*
X541Y2833D02*
X624Y2833D01*
X541Y2832D02*
X624Y2832D01*
X541Y2831D02*
X624Y2831D01*
X541Y2830D02*
X624Y2830D01*
X541Y2829D02*
X624Y2829D01*
X541Y2828D02*
X624Y2828D01*
X541Y2827D02*
X624Y2827D01*
X541Y2826D02*
X624Y2826D01*
X541Y2825D02*
X624Y2825D01*
X541Y2824D02*
X624Y2824D01*
X541Y2823D02*
X624Y2823D01*
X541Y2822D02*
X577Y2822D01*
X588Y2822D02*
X624Y2822D01*
X541Y2821D02*
X575Y2821D01*
X590Y2821D02*
X624Y2821D01*
X541Y2820D02*
X573Y2820D01*
X592Y2820D02*
X624Y2820D01*
X541Y2819D02*
X572Y2819D01*
X593Y2819D02*
X624Y2819D01*
X541Y2818D02*
X571Y2818D01*
X594Y2818D02*
X624Y2818D01*
X541Y2817D02*
X570Y2817D01*
X595Y2817D02*
X624Y2817D01*
X541Y2816D02*
X570Y2816D01*
X596Y2816D02*
X624Y2816D01*
X541Y2815D02*
X569Y2815D01*
X596Y2815D02*
X624Y2815D01*
X541Y2814D02*
X568Y2814D01*
X597Y2814D02*
X624Y2814D01*
X541Y2813D02*
X568Y2813D01*
X597Y2813D02*
X624Y2813D01*
X541Y2812D02*
X568Y2812D01*
X598Y2812D02*
X624Y2812D01*
X541Y2811D02*
X568Y2811D01*
X598Y2811D02*
X624Y2811D01*
X541Y2810D02*
X567Y2810D01*
X598Y2810D02*
X624Y2810D01*
X541Y2809D02*
X567Y2809D01*
X598Y2809D02*
X624Y2809D01*
X541Y2808D02*
X567Y2808D01*
X598Y2808D02*
X624Y2808D01*
X541Y2807D02*
X567Y2807D01*
X598Y2807D02*
X624Y2807D01*
X541Y2806D02*
X567Y2806D01*
X598Y2806D02*
X624Y2806D01*
X541Y2805D02*
X567Y2805D01*
X598Y2805D02*
X624Y2805D01*
X541Y2804D02*
X568Y2804D01*
X598Y2804D02*
X624Y2804D01*
X541Y2803D02*
X568Y2803D01*
X597Y2803D02*
X624Y2803D01*
X541Y2802D02*
X568Y2802D01*
X597Y2802D02*
X624Y2802D01*
X541Y2801D02*
X569Y2801D01*
X597Y2801D02*
X624Y2801D01*
X541Y2800D02*
X569Y2800D01*
X596Y2800D02*
X624Y2800D01*
X541Y2799D02*
X570Y2799D01*
X595Y2799D02*
X624Y2799D01*
X541Y2798D02*
X571Y2798D01*
X594Y2798D02*
X624Y2798D01*
X541Y2797D02*
X572Y2797D01*
X594Y2797D02*
X624Y2797D01*
X541Y2796D02*
X573Y2796D01*
X592Y2796D02*
X624Y2796D01*
X541Y2795D02*
X574Y2795D01*
X591Y2795D02*
X624Y2795D01*
X541Y2794D02*
X576Y2794D01*
X589Y2794D02*
X624Y2794D01*
X541Y2793D02*
X581Y2793D01*
X585Y2793D02*
X624Y2793D01*
X541Y2792D02*
X624Y2792D01*
X541Y2791D02*
X624Y2791D01*
X541Y2790D02*
X624Y2790D01*
X541Y2789D02*
X624Y2789D01*
X541Y2788D02*
X624Y2788D01*
X541Y2787D02*
X624Y2787D01*
X541Y2786D02*
X624Y2786D01*
X541Y2785D02*
X624Y2785D01*
X541Y2784D02*
X624Y2784D01*
X541Y2783D02*
X624Y2783D01*
X541Y2782D02*
X624Y2782D01*
X541Y2781D02*
X624Y2781D01*
X541Y2780D02*
X624Y2780D01*
X541Y2779D02*
X624Y2779D01*
X541Y2778D02*
X624Y2778D01*
X541Y2777D02*
X624Y2777D01*
X541Y2776D02*
X624Y2776D01*
X541Y2775D02*
X624Y2775D01*
X541Y2774D02*
X624Y2774D01*
X541Y2773D02*
X624Y2773D01*
X541Y2772D02*
X624Y2772D01*
X541Y2771D02*
X624Y2771D01*
X541Y2770D02*
X624Y2770D01*
X541Y2769D02*
X624Y2769D01*
X541Y2768D02*
X624Y2768D01*
X541Y2767D02*
X624Y2767D01*
X541Y2766D02*
X624Y2766D01*
X3331Y2639D02*
X3414Y2639D01*
X3331Y2638D02*
X3414Y2638D01*
X3331Y2637D02*
X3414Y2637D01*
X3331Y2636D02*
X3414Y2636D01*
X3331Y2635D02*
X3414Y2635D01*
X3331Y2634D02*
X3414Y2634D01*
X3331Y2633D02*
X3414Y2633D01*
X3331Y2632D02*
X3414Y2632D01*
X3331Y2631D02*
X3414Y2631D01*
X3331Y2630D02*
X3414Y2630D01*
X3331Y2629D02*
X3414Y2629D01*
X3331Y2628D02*
X3414Y2628D01*
X3331Y2627D02*
X3414Y2627D01*
X3331Y2626D02*
X3414Y2626D01*
X3331Y2625D02*
X3414Y2625D01*
X3331Y2624D02*
X3414Y2624D01*
X3331Y2623D02*
X3414Y2623D01*
X3331Y2622D02*
X3414Y2622D01*
X3331Y2621D02*
X3414Y2621D01*
X3331Y2620D02*
X3414Y2620D01*
X3331Y2619D02*
X3414Y2619D01*
X3331Y2618D02*
X3414Y2618D01*
X3331Y2617D02*
X3414Y2617D01*
X3331Y2616D02*
X3414Y2616D01*
X3331Y2615D02*
X3414Y2615D01*
X3331Y2614D02*
X3414Y2614D01*
X3331Y2613D02*
X3414Y2613D01*
X3331Y2612D02*
X3367Y2612D01*
X3378Y2612D02*
X3414Y2612D01*
X3331Y2611D02*
X3365Y2611D01*
X3380Y2611D02*
X3414Y2611D01*
X3331Y2610D02*
X3363Y2610D01*
X3382Y2610D02*
X3414Y2610D01*
X3331Y2609D02*
X3362Y2609D01*
X3383Y2609D02*
X3414Y2609D01*
X3331Y2608D02*
X3361Y2608D01*
X3384Y2608D02*
X3414Y2608D01*
X3331Y2607D02*
X3360Y2607D01*
X3385Y2607D02*
X3414Y2607D01*
X3331Y2606D02*
X3360Y2606D01*
X3386Y2606D02*
X3414Y2606D01*
X3331Y2605D02*
X3359Y2605D01*
X3386Y2605D02*
X3414Y2605D01*
X3331Y2604D02*
X3358Y2604D01*
X3387Y2604D02*
X3414Y2604D01*
X3331Y2603D02*
X3358Y2603D01*
X3387Y2603D02*
X3414Y2603D01*
X3331Y2602D02*
X3358Y2602D01*
X3388Y2602D02*
X3414Y2602D01*
X3331Y2601D02*
X3358Y2601D01*
X3388Y2601D02*
X3414Y2601D01*
X3331Y2600D02*
X3357Y2600D01*
X3388Y2600D02*
X3414Y2600D01*
X3331Y2599D02*
X3357Y2599D01*
X3388Y2599D02*
X3414Y2599D01*
X3331Y2598D02*
X3357Y2598D01*
X3388Y2598D02*
X3414Y2598D01*
X3331Y2597D02*
X3357Y2597D01*
X3388Y2597D02*
X3414Y2597D01*
X3331Y2596D02*
X3357Y2596D01*
X3388Y2596D02*
X3414Y2596D01*
X3331Y2595D02*
X3357Y2595D01*
X3388Y2595D02*
X3414Y2595D01*
X3331Y2594D02*
X3358Y2594D01*
X3388Y2594D02*
X3414Y2594D01*
X3331Y2593D02*
X3358Y2593D01*
X3387Y2593D02*
X3414Y2593D01*
X3331Y2592D02*
X3358Y2592D01*
X3387Y2592D02*
X3414Y2592D01*
X3331Y2591D02*
X3359Y2591D01*
X3387Y2591D02*
X3414Y2591D01*
X3331Y2590D02*
X3359Y2590D01*
X3386Y2590D02*
X3414Y2590D01*
X3331Y2589D02*
X3360Y2589D01*
X3385Y2589D02*
X3414Y2589D01*
X3331Y2588D02*
X3361Y2588D01*
X3384Y2588D02*
X3414Y2588D01*
X3331Y2587D02*
X3362Y2587D01*
X3384Y2587D02*
X3414Y2587D01*
X3331Y2586D02*
X3363Y2586D01*
X3382Y2586D02*
X3414Y2586D01*
X3331Y2585D02*
X3364Y2585D01*
X3381Y2585D02*
X3414Y2585D01*
X3331Y2584D02*
X3366Y2584D01*
X3379Y2584D02*
X3414Y2584D01*
X3331Y2583D02*
X3371Y2583D01*
X3375Y2583D02*
X3414Y2583D01*
X3331Y2582D02*
X3414Y2582D01*
X3331Y2581D02*
X3414Y2581D01*
X3331Y2580D02*
X3414Y2580D01*
X3331Y2579D02*
X3414Y2579D01*
X3331Y2578D02*
X3414Y2578D01*
X3331Y2577D02*
X3414Y2577D01*
X3331Y2576D02*
X3414Y2576D01*
X3331Y2575D02*
X3414Y2575D01*
X3331Y2574D02*
X3414Y2574D01*
X3331Y2573D02*
X3414Y2573D01*
X3331Y2572D02*
X3414Y2572D01*
X3331Y2571D02*
X3414Y2571D01*
X3331Y2570D02*
X3414Y2570D01*
X3331Y2569D02*
X3414Y2569D01*
X3331Y2568D02*
X3414Y2568D01*
X3331Y2567D02*
X3414Y2567D01*
X3331Y2566D02*
X3414Y2566D01*
X3331Y2565D02*
X3414Y2565D01*
X3331Y2564D02*
X3414Y2564D01*
X3331Y2563D02*
X3414Y2563D01*
X3331Y2562D02*
X3414Y2562D01*
X3331Y2561D02*
X3414Y2561D01*
X3331Y2560D02*
X3414Y2560D01*
X3331Y2559D02*
X3414Y2559D01*
X3331Y2558D02*
X3414Y2558D01*
X3331Y2557D02*
X3414Y2557D01*
X3331Y2556D02*
X3414Y2556D01*
X3331Y2239D02*
X3414Y2239D01*
X3331Y2238D02*
X3414Y2238D01*
X3331Y2237D02*
X3414Y2237D01*
X3331Y2236D02*
X3414Y2236D01*
X3331Y2235D02*
X3414Y2235D01*
X3331Y2234D02*
X3414Y2234D01*
X3331Y2233D02*
X3414Y2233D01*
X3331Y2232D02*
X3414Y2232D01*
X3331Y2231D02*
X3414Y2231D01*
X3331Y2230D02*
X3414Y2230D01*
X3331Y2229D02*
X3414Y2229D01*
X3331Y2228D02*
X3414Y2228D01*
X3331Y2227D02*
X3414Y2227D01*
X3331Y2226D02*
X3414Y2226D01*
X3331Y2225D02*
X3414Y2225D01*
X3331Y2224D02*
X3414Y2224D01*
X3331Y2223D02*
X3414Y2223D01*
X3331Y2222D02*
X3414Y2222D01*
X3331Y2221D02*
X3414Y2221D01*
X3331Y2220D02*
X3414Y2220D01*
X3331Y2219D02*
X3414Y2219D01*
X3331Y2218D02*
X3414Y2218D01*
X3331Y2217D02*
X3414Y2217D01*
X3331Y2216D02*
X3414Y2216D01*
X3331Y2215D02*
X3414Y2215D01*
X3331Y2214D02*
X3414Y2214D01*
X3331Y2213D02*
X3414Y2213D01*
X3331Y2212D02*
X3367Y2212D01*
X3378Y2212D02*
X3414Y2212D01*
X3331Y2211D02*
X3365Y2211D01*
X3380Y2211D02*
X3414Y2211D01*
X3331Y2210D02*
X3363Y2210D01*
X3382Y2210D02*
X3414Y2210D01*
X3331Y2209D02*
X3362Y2209D01*
X3383Y2209D02*
X3414Y2209D01*
X3331Y2208D02*
X3361Y2208D01*
X3384Y2208D02*
X3414Y2208D01*
X3331Y2207D02*
X3360Y2207D01*
X3385Y2207D02*
X3414Y2207D01*
X3331Y2206D02*
X3360Y2206D01*
X3386Y2206D02*
X3414Y2206D01*
X3331Y2205D02*
X3359Y2205D01*
X3386Y2205D02*
X3414Y2205D01*
X3331Y2204D02*
X3358Y2204D01*
X3387Y2204D02*
X3414Y2204D01*
X3331Y2203D02*
X3358Y2203D01*
X3387Y2203D02*
X3414Y2203D01*
X3331Y2202D02*
X3358Y2202D01*
X3388Y2202D02*
X3414Y2202D01*
X3331Y2201D02*
X3358Y2201D01*
X3388Y2201D02*
X3414Y2201D01*
X3331Y2200D02*
X3357Y2200D01*
X3388Y2200D02*
X3414Y2200D01*
X3331Y2199D02*
X3357Y2199D01*
X3388Y2199D02*
X3414Y2199D01*
X3331Y2198D02*
X3357Y2198D01*
X3388Y2198D02*
X3414Y2198D01*
X3331Y2197D02*
X3357Y2197D01*
X3388Y2197D02*
X3414Y2197D01*
X3331Y2196D02*
X3357Y2196D01*
X3388Y2196D02*
X3414Y2196D01*
X3331Y2195D02*
X3357Y2195D01*
X3388Y2195D02*
X3414Y2195D01*
X3331Y2194D02*
X3358Y2194D01*
X3388Y2194D02*
X3414Y2194D01*
X3331Y2193D02*
X3358Y2193D01*
X3387Y2193D02*
X3414Y2193D01*
X3331Y2192D02*
X3358Y2192D01*
X3387Y2192D02*
X3414Y2192D01*
X3331Y2191D02*
X3359Y2191D01*
X3387Y2191D02*
X3414Y2191D01*
X3331Y2190D02*
X3359Y2190D01*
X3386Y2190D02*
X3414Y2190D01*
X3331Y2189D02*
X3360Y2189D01*
X3385Y2189D02*
X3414Y2189D01*
X3331Y2188D02*
X3361Y2188D01*
X3384Y2188D02*
X3414Y2188D01*
X3331Y2187D02*
X3362Y2187D01*
X3383Y2187D02*
X3414Y2187D01*
X3331Y2186D02*
X3363Y2186D01*
X3382Y2186D02*
X3414Y2186D01*
X3331Y2185D02*
X3364Y2185D01*
X3381Y2185D02*
X3414Y2185D01*
X3331Y2184D02*
X3366Y2184D01*
X3379Y2184D02*
X3414Y2184D01*
X3331Y2183D02*
X3371Y2183D01*
X3375Y2183D02*
X3414Y2183D01*
X3331Y2182D02*
X3414Y2182D01*
X3331Y2181D02*
X3414Y2181D01*
X3331Y2180D02*
X3414Y2180D01*
X3331Y2179D02*
X3414Y2179D01*
X3331Y2178D02*
X3414Y2178D01*
X3331Y2177D02*
X3414Y2177D01*
X3331Y2176D02*
X3414Y2176D01*
X3331Y2175D02*
X3414Y2175D01*
X3331Y2174D02*
X3414Y2174D01*
X3331Y2173D02*
X3414Y2173D01*
X3331Y2172D02*
X3414Y2172D01*
X3331Y2171D02*
X3414Y2171D01*
X3331Y2170D02*
X3414Y2170D01*
X3331Y2169D02*
X3414Y2169D01*
X3331Y2168D02*
X3414Y2168D01*
X3331Y2167D02*
X3414Y2167D01*
X3331Y2166D02*
X3414Y2166D01*
X3331Y2165D02*
X3414Y2165D01*
X3331Y2164D02*
X3414Y2164D01*
X3331Y2163D02*
X3414Y2163D01*
X3331Y2162D02*
X3414Y2162D01*
X3331Y2161D02*
X3414Y2161D01*
X3331Y2160D02*
X3414Y2160D01*
X3331Y2159D02*
X3414Y2159D01*
X3331Y2158D02*
X3414Y2158D01*
X3331Y2157D02*
X3414Y2157D01*
X3331Y2156D02*
X3414Y2156D01*
X3531Y1839D02*
X3614Y1839D01*
X3531Y1838D02*
X3614Y1838D01*
X3531Y1837D02*
X3614Y1837D01*
X3531Y1836D02*
X3614Y1836D01*
X3531Y1835D02*
X3614Y1835D01*
X3531Y1834D02*
X3614Y1834D01*
X3531Y1833D02*
X3614Y1833D01*
X3531Y1832D02*
X3614Y1832D01*
X3531Y1831D02*
X3614Y1831D01*
X3531Y1830D02*
X3614Y1830D01*
X3531Y1829D02*
X3614Y1829D01*
X3531Y1828D02*
X3614Y1828D01*
X3531Y1827D02*
X3614Y1827D01*
X3531Y1826D02*
X3614Y1826D01*
X3531Y1825D02*
X3614Y1825D01*
X3531Y1824D02*
X3614Y1824D01*
X3531Y1823D02*
X3614Y1823D01*
X3531Y1822D02*
X3614Y1822D01*
X3531Y1821D02*
X3614Y1821D01*
X3531Y1820D02*
X3614Y1820D01*
X3531Y1819D02*
X3614Y1819D01*
X3531Y1818D02*
X3614Y1818D01*
X3531Y1817D02*
X3614Y1817D01*
X3531Y1816D02*
X3614Y1816D01*
X3531Y1815D02*
X3614Y1815D01*
X3531Y1814D02*
X3614Y1814D01*
X3531Y1813D02*
X3614Y1813D01*
X3531Y1812D02*
X3567Y1812D01*
X3578Y1812D02*
X3614Y1812D01*
X3531Y1811D02*
X3565Y1811D01*
X3580Y1811D02*
X3614Y1811D01*
X3531Y1810D02*
X3563Y1810D01*
X3582Y1810D02*
X3614Y1810D01*
X3531Y1809D02*
X3562Y1809D01*
X3583Y1809D02*
X3614Y1809D01*
X3531Y1808D02*
X3561Y1808D01*
X3584Y1808D02*
X3614Y1808D01*
X3531Y1807D02*
X3560Y1807D01*
X3585Y1807D02*
X3614Y1807D01*
X3531Y1806D02*
X3560Y1806D01*
X3586Y1806D02*
X3614Y1806D01*
X3531Y1805D02*
X3559Y1805D01*
X3586Y1805D02*
X3614Y1805D01*
X3531Y1804D02*
X3558Y1804D01*
X3587Y1804D02*
X3614Y1804D01*
X3531Y1803D02*
X3558Y1803D01*
X3587Y1803D02*
X3614Y1803D01*
X3531Y1802D02*
X3558Y1802D01*
X3588Y1802D02*
X3614Y1802D01*
X3531Y1801D02*
X3557Y1801D01*
X3588Y1801D02*
X3614Y1801D01*
X3531Y1800D02*
X3557Y1800D01*
X3588Y1800D02*
X3614Y1800D01*
X3531Y1799D02*
X3557Y1799D01*
X3588Y1799D02*
X3614Y1799D01*
X3531Y1798D02*
X3557Y1798D01*
X3588Y1798D02*
X3614Y1798D01*
X3531Y1797D02*
X3557Y1797D01*
X3588Y1797D02*
X3614Y1797D01*
X3531Y1796D02*
X3557Y1796D01*
X3588Y1796D02*
X3614Y1796D01*
X3531Y1795D02*
X3557Y1795D01*
X3588Y1795D02*
X3614Y1795D01*
X3531Y1794D02*
X3558Y1794D01*
X3588Y1794D02*
X3614Y1794D01*
X3531Y1793D02*
X3558Y1793D01*
X3587Y1793D02*
X3614Y1793D01*
X3531Y1792D02*
X3558Y1792D01*
X3587Y1792D02*
X3614Y1792D01*
X3531Y1791D02*
X3559Y1791D01*
X3587Y1791D02*
X3614Y1791D01*
X3531Y1790D02*
X3559Y1790D01*
X3586Y1790D02*
X3614Y1790D01*
X3531Y1789D02*
X3560Y1789D01*
X3585Y1789D02*
X3614Y1789D01*
X3531Y1788D02*
X3561Y1788D01*
X3584Y1788D02*
X3614Y1788D01*
X3531Y1787D02*
X3562Y1787D01*
X3583Y1787D02*
X3614Y1787D01*
X3531Y1786D02*
X3563Y1786D01*
X3582Y1786D02*
X3614Y1786D01*
X3531Y1785D02*
X3564Y1785D01*
X3581Y1785D02*
X3614Y1785D01*
X3531Y1784D02*
X3566Y1784D01*
X3579Y1784D02*
X3614Y1784D01*
X3531Y1783D02*
X3571Y1783D01*
X3575Y1783D02*
X3614Y1783D01*
X3531Y1782D02*
X3614Y1782D01*
X3531Y1781D02*
X3614Y1781D01*
X3531Y1780D02*
X3614Y1780D01*
X3531Y1779D02*
X3614Y1779D01*
X3531Y1778D02*
X3614Y1778D01*
X3531Y1777D02*
X3614Y1777D01*
X3531Y1776D02*
X3614Y1776D01*
X3531Y1775D02*
X3614Y1775D01*
X3531Y1774D02*
X3614Y1774D01*
X3531Y1773D02*
X3614Y1773D01*
X3531Y1772D02*
X3614Y1772D01*
X3531Y1771D02*
X3614Y1771D01*
X3531Y1770D02*
X3614Y1770D01*
X3531Y1769D02*
X3614Y1769D01*
X3531Y1768D02*
X3614Y1768D01*
X3531Y1767D02*
X3614Y1767D01*
X3531Y1766D02*
X3614Y1766D01*
X3531Y1765D02*
X3614Y1765D01*
X3531Y1764D02*
X3614Y1764D01*
X3531Y1763D02*
X3614Y1763D01*
X3531Y1762D02*
X3614Y1762D01*
X3531Y1761D02*
X3614Y1761D01*
X3531Y1760D02*
X3614Y1760D01*
X3531Y1759D02*
X3614Y1759D01*
X3531Y1758D02*
X3614Y1758D01*
X3531Y1757D02*
X3614Y1757D01*
X3531Y1756D02*
X3614Y1756D01*
X3531Y1439D02*
X3614Y1439D01*
X3531Y1438D02*
X3614Y1438D01*
X3531Y1437D02*
X3614Y1437D01*
X3531Y1436D02*
X3614Y1436D01*
X3531Y1435D02*
X3614Y1435D01*
X3531Y1434D02*
X3614Y1434D01*
X3531Y1433D02*
X3614Y1433D01*
X3531Y1432D02*
X3614Y1432D01*
X3531Y1431D02*
X3614Y1431D01*
X3531Y1430D02*
X3614Y1430D01*
X3531Y1429D02*
X3614Y1429D01*
X3531Y1428D02*
X3614Y1428D01*
X3531Y1427D02*
X3614Y1427D01*
X3531Y1426D02*
X3614Y1426D01*
X3531Y1425D02*
X3614Y1425D01*
X3531Y1424D02*
X3614Y1424D01*
X3531Y1423D02*
X3614Y1423D01*
X3531Y1422D02*
X3614Y1422D01*
X3531Y1421D02*
X3614Y1421D01*
X3531Y1420D02*
X3614Y1420D01*
X3531Y1419D02*
X3614Y1419D01*
X3531Y1418D02*
X3614Y1418D01*
X3531Y1417D02*
X3614Y1417D01*
X3531Y1416D02*
X3614Y1416D01*
X3531Y1415D02*
X3614Y1415D01*
X3531Y1414D02*
X3614Y1414D01*
X3531Y1413D02*
X3614Y1413D01*
X3531Y1412D02*
X3567Y1412D01*
X3578Y1412D02*
X3614Y1412D01*
X3531Y1411D02*
X3565Y1411D01*
X3581Y1411D02*
X3614Y1411D01*
X3531Y1410D02*
X3563Y1410D01*
X3582Y1410D02*
X3614Y1410D01*
X3531Y1409D02*
X3562Y1409D01*
X3583Y1409D02*
X3614Y1409D01*
X3531Y1408D02*
X3561Y1408D01*
X3584Y1408D02*
X3614Y1408D01*
X3531Y1407D02*
X3560Y1407D01*
X3585Y1407D02*
X3614Y1407D01*
X3531Y1406D02*
X3560Y1406D01*
X3586Y1406D02*
X3614Y1406D01*
X3531Y1405D02*
X3559Y1405D01*
X3586Y1405D02*
X3614Y1405D01*
X3531Y1404D02*
X3558Y1404D01*
X3587Y1404D02*
X3614Y1404D01*
X3531Y1403D02*
X3558Y1403D01*
X3587Y1403D02*
X3614Y1403D01*
X3531Y1402D02*
X3558Y1402D01*
X3588Y1402D02*
X3614Y1402D01*
X3531Y1401D02*
X3557Y1401D01*
X3588Y1401D02*
X3614Y1401D01*
X3531Y1400D02*
X3557Y1400D01*
X3588Y1400D02*
X3614Y1400D01*
X3531Y1399D02*
X3557Y1399D01*
X3588Y1399D02*
X3614Y1399D01*
X3531Y1398D02*
X3557Y1398D01*
X3588Y1398D02*
X3614Y1398D01*
X3531Y1397D02*
X3557Y1397D01*
X3588Y1397D02*
X3614Y1397D01*
X3531Y1396D02*
X3557Y1396D01*
X3588Y1396D02*
X3614Y1396D01*
X3531Y1395D02*
X3557Y1395D01*
X3588Y1395D02*
X3614Y1395D01*
X3531Y1394D02*
X3558Y1394D01*
X3588Y1394D02*
X3614Y1394D01*
X3531Y1393D02*
X3558Y1393D01*
X3587Y1393D02*
X3614Y1393D01*
X3531Y1392D02*
X3558Y1392D01*
X3587Y1392D02*
X3614Y1392D01*
X3531Y1391D02*
X3559Y1391D01*
X3587Y1391D02*
X3614Y1391D01*
X3531Y1390D02*
X3559Y1390D01*
X3586Y1390D02*
X3614Y1390D01*
X3531Y1389D02*
X3560Y1389D01*
X3585Y1389D02*
X3614Y1389D01*
X3531Y1388D02*
X3561Y1388D01*
X3584Y1388D02*
X3614Y1388D01*
X3531Y1387D02*
X3562Y1387D01*
X3583Y1387D02*
X3614Y1387D01*
X3531Y1386D02*
X3563Y1386D01*
X3582Y1386D02*
X3614Y1386D01*
X3531Y1385D02*
X3565Y1385D01*
X3581Y1385D02*
X3614Y1385D01*
X3531Y1384D02*
X3566Y1384D01*
X3579Y1384D02*
X3614Y1384D01*
X3531Y1383D02*
X3571Y1383D01*
X3574Y1383D02*
X3614Y1383D01*
X3531Y1382D02*
X3614Y1382D01*
X3531Y1381D02*
X3614Y1381D01*
X3531Y1380D02*
X3614Y1380D01*
X3531Y1379D02*
X3614Y1379D01*
X3531Y1378D02*
X3614Y1378D01*
X3531Y1377D02*
X3614Y1377D01*
X3531Y1376D02*
X3614Y1376D01*
X3531Y1375D02*
X3614Y1375D01*
X3531Y1374D02*
X3614Y1374D01*
X3531Y1373D02*
X3614Y1373D01*
X3531Y1372D02*
X3614Y1372D01*
X3531Y1371D02*
X3614Y1371D01*
X3531Y1370D02*
X3614Y1370D01*
X3531Y1369D02*
X3614Y1369D01*
X3531Y1368D02*
X3614Y1368D01*
X3531Y1367D02*
X3614Y1367D01*
X3531Y1366D02*
X3614Y1366D01*
X3531Y1365D02*
X3614Y1365D01*
X3531Y1364D02*
X3614Y1364D01*
X3531Y1363D02*
X3614Y1363D01*
X3531Y1362D02*
X3614Y1362D01*
X3531Y1361D02*
X3614Y1361D01*
X3531Y1360D02*
X3614Y1360D01*
X3531Y1359D02*
X3614Y1359D01*
X3531Y1358D02*
X3614Y1358D01*
X3531Y1357D02*
X3614Y1357D01*
X3532Y1356D02*
X3614Y1356D01*
X3531Y1039D02*
X3614Y1039D01*
X3531Y1038D02*
X3614Y1038D01*
X3531Y1037D02*
X3614Y1037D01*
X3531Y1036D02*
X3614Y1036D01*
X3531Y1035D02*
X3614Y1035D01*
X3531Y1034D02*
X3614Y1034D01*
X3531Y1033D02*
X3614Y1033D01*
X3531Y1032D02*
X3614Y1032D01*
X3531Y1031D02*
X3614Y1031D01*
X3531Y1030D02*
X3614Y1030D01*
X3531Y1029D02*
X3614Y1029D01*
X3531Y1028D02*
X3614Y1028D01*
X3531Y1027D02*
X3614Y1027D01*
X3531Y1026D02*
X3614Y1026D01*
X3531Y1025D02*
X3614Y1025D01*
X3531Y1024D02*
X3614Y1024D01*
X3531Y1023D02*
X3614Y1023D01*
X3531Y1022D02*
X3614Y1022D01*
X3531Y1021D02*
X3614Y1021D01*
X3531Y1020D02*
X3614Y1020D01*
X3531Y1019D02*
X3614Y1019D01*
X3531Y1018D02*
X3614Y1018D01*
X3531Y1017D02*
X3614Y1017D01*
X3531Y1016D02*
X3614Y1016D01*
X3531Y1015D02*
X3614Y1015D01*
X3531Y1014D02*
X3614Y1014D01*
X3531Y1013D02*
X3614Y1013D01*
X3531Y1012D02*
X3567Y1012D01*
X3578Y1012D02*
X3614Y1012D01*
X3531Y1011D02*
X3565Y1011D01*
X3581Y1011D02*
X3614Y1011D01*
X3531Y1010D02*
X3563Y1010D01*
X3582Y1010D02*
X3614Y1010D01*
X3531Y1009D02*
X3562Y1009D01*
X3583Y1009D02*
X3614Y1009D01*
X3531Y1008D02*
X3561Y1008D01*
X3584Y1008D02*
X3614Y1008D01*
X3531Y1007D02*
X3560Y1007D01*
X3585Y1007D02*
X3614Y1007D01*
X3531Y1006D02*
X3560Y1006D01*
X3586Y1006D02*
X3614Y1006D01*
X3531Y1005D02*
X3559Y1005D01*
X3586Y1005D02*
X3614Y1005D01*
X3531Y1004D02*
X3558Y1004D01*
X3587Y1004D02*
X3614Y1004D01*
X3531Y1003D02*
X3558Y1003D01*
X3587Y1003D02*
X3614Y1003D01*
X3531Y1002D02*
X3558Y1002D01*
X3588Y1002D02*
X3614Y1002D01*
X3531Y1001D02*
X3557Y1001D01*
X3588Y1001D02*
X3614Y1001D01*
X3531Y1000D02*
X3557Y1000D01*
X3588Y1000D02*
X3614Y1000D01*
X3531Y999D02*
X3557Y999D01*
X3588Y999D02*
X3614Y999D01*
X3531Y998D02*
X3557Y998D01*
X3588Y998D02*
X3614Y998D01*
X3531Y997D02*
X3557Y997D01*
X3588Y997D02*
X3614Y997D01*
X3531Y996D02*
X3557Y996D01*
X3588Y996D02*
X3614Y996D01*
X3531Y995D02*
X3557Y995D01*
X3588Y995D02*
X3614Y995D01*
X3531Y994D02*
X3558Y994D01*
X3588Y994D02*
X3614Y994D01*
X3531Y993D02*
X3558Y993D01*
X3587Y993D02*
X3614Y993D01*
X3531Y992D02*
X3558Y992D01*
X3587Y992D02*
X3614Y992D01*
X3531Y991D02*
X3559Y991D01*
X3587Y991D02*
X3614Y991D01*
X3531Y990D02*
X3559Y990D01*
X3586Y990D02*
X3614Y990D01*
X3531Y989D02*
X3560Y989D01*
X3585Y989D02*
X3614Y989D01*
X3531Y988D02*
X3561Y988D01*
X3584Y988D02*
X3614Y988D01*
X3531Y987D02*
X3562Y987D01*
X3583Y987D02*
X3614Y987D01*
X3531Y986D02*
X3563Y986D01*
X3582Y986D02*
X3614Y986D01*
X3531Y985D02*
X3565Y985D01*
X3581Y985D02*
X3614Y985D01*
X3531Y984D02*
X3566Y984D01*
X3579Y984D02*
X3614Y984D01*
X3531Y983D02*
X3571Y983D01*
X3574Y983D02*
X3614Y983D01*
X3531Y982D02*
X3614Y982D01*
X3531Y981D02*
X3614Y981D01*
X3531Y980D02*
X3614Y980D01*
X3531Y979D02*
X3614Y979D01*
X3531Y978D02*
X3614Y978D01*
X3531Y977D02*
X3614Y977D01*
X3531Y976D02*
X3614Y976D01*
X3531Y975D02*
X3614Y975D01*
X3531Y974D02*
X3614Y974D01*
X3531Y973D02*
X3614Y973D01*
X3531Y972D02*
X3614Y972D01*
X3531Y971D02*
X3614Y971D01*
X3531Y970D02*
X3614Y970D01*
X3531Y969D02*
X3614Y969D01*
X3531Y968D02*
X3614Y968D01*
X3531Y967D02*
X3614Y967D01*
X3531Y966D02*
X3614Y966D01*
X3531Y965D02*
X3614Y965D01*
X3531Y964D02*
X3614Y964D01*
X3531Y963D02*
X3614Y963D01*
X3531Y962D02*
X3614Y962D01*
X3531Y961D02*
X3614Y961D01*
X3531Y960D02*
X3614Y960D01*
X3531Y959D02*
X3614Y959D01*
X3531Y958D02*
X3614Y958D01*
X3531Y957D02*
X3614Y957D01*
X3532Y956D02*
X3614Y956D01*
X3531Y739D02*
X3614Y739D01*
X3531Y738D02*
X3614Y738D01*
X3531Y737D02*
X3614Y737D01*
X3531Y736D02*
X3614Y736D01*
X3531Y735D02*
X3614Y735D01*
X3531Y734D02*
X3614Y734D01*
X3531Y733D02*
X3614Y733D01*
X3531Y732D02*
X3614Y732D01*
X3531Y731D02*
X3614Y731D01*
X3531Y730D02*
X3614Y730D01*
X3531Y729D02*
X3614Y729D01*
X3531Y728D02*
X3614Y728D01*
X3531Y727D02*
X3614Y727D01*
X3531Y726D02*
X3614Y726D01*
X3531Y725D02*
X3614Y725D01*
X3531Y724D02*
X3614Y724D01*
X3531Y723D02*
X3614Y723D01*
X3531Y722D02*
X3614Y722D01*
X3531Y721D02*
X3614Y721D01*
X3531Y720D02*
X3614Y720D01*
X3531Y719D02*
X3614Y719D01*
X3531Y718D02*
X3614Y718D01*
X3531Y717D02*
X3614Y717D01*
X3531Y716D02*
X3614Y716D01*
X3531Y715D02*
X3614Y715D01*
X3531Y714D02*
X3614Y714D01*
X3531Y713D02*
X3614Y713D01*
X3531Y712D02*
X3567Y712D01*
X3578Y712D02*
X3614Y712D01*
X3531Y711D02*
X3565Y711D01*
X3581Y711D02*
X3614Y711D01*
X3531Y710D02*
X3563Y710D01*
X3582Y710D02*
X3614Y710D01*
X3531Y709D02*
X3562Y709D01*
X3583Y709D02*
X3614Y709D01*
X3531Y708D02*
X3561Y708D01*
X3584Y708D02*
X3614Y708D01*
X3531Y707D02*
X3560Y707D01*
X3585Y707D02*
X3614Y707D01*
X3531Y706D02*
X3560Y706D01*
X3586Y706D02*
X3614Y706D01*
X3531Y705D02*
X3559Y705D01*
X3586Y705D02*
X3614Y705D01*
X3531Y704D02*
X3558Y704D01*
X3587Y704D02*
X3614Y704D01*
X3531Y703D02*
X3558Y703D01*
X3587Y703D02*
X3614Y703D01*
X3531Y702D02*
X3558Y702D01*
X3588Y702D02*
X3614Y702D01*
X3531Y701D02*
X3557Y701D01*
X3588Y701D02*
X3614Y701D01*
X3531Y700D02*
X3557Y700D01*
X3588Y700D02*
X3614Y700D01*
X3531Y699D02*
X3557Y699D01*
X3588Y699D02*
X3614Y699D01*
X3531Y698D02*
X3557Y698D01*
X3588Y698D02*
X3614Y698D01*
X3531Y697D02*
X3557Y697D01*
X3588Y697D02*
X3614Y697D01*
X3531Y696D02*
X3557Y696D01*
X3588Y696D02*
X3614Y696D01*
X3531Y695D02*
X3557Y695D01*
X3588Y695D02*
X3614Y695D01*
X3531Y694D02*
X3558Y694D01*
X3588Y694D02*
X3614Y694D01*
X3531Y693D02*
X3558Y693D01*
X3587Y693D02*
X3614Y693D01*
X3531Y692D02*
X3558Y692D01*
X3587Y692D02*
X3614Y692D01*
X3531Y691D02*
X3559Y691D01*
X3587Y691D02*
X3614Y691D01*
X3531Y690D02*
X3559Y690D01*
X3586Y690D02*
X3614Y690D01*
X3531Y689D02*
X3560Y689D01*
X3585Y689D02*
X3614Y689D01*
X3531Y688D02*
X3561Y688D01*
X3584Y688D02*
X3614Y688D01*
X3531Y687D02*
X3562Y687D01*
X3583Y687D02*
X3614Y687D01*
X3531Y686D02*
X3563Y686D01*
X3582Y686D02*
X3614Y686D01*
X3531Y685D02*
X3565Y685D01*
X3581Y685D02*
X3614Y685D01*
X3531Y684D02*
X3566Y684D01*
X3579Y684D02*
X3614Y684D01*
X3531Y683D02*
X3571Y683D01*
X3574Y683D02*
X3614Y683D01*
X3531Y682D02*
X3614Y682D01*
X3531Y681D02*
X3614Y681D01*
X3531Y680D02*
X3614Y680D01*
X3531Y679D02*
X3614Y679D01*
X3531Y678D02*
X3614Y678D01*
X3531Y677D02*
X3614Y677D01*
X3531Y676D02*
X3614Y676D01*
X3531Y675D02*
X3614Y675D01*
X3531Y674D02*
X3614Y674D01*
X3531Y673D02*
X3614Y673D01*
X3531Y672D02*
X3614Y672D01*
X3531Y671D02*
X3614Y671D01*
X3531Y670D02*
X3614Y670D01*
X3531Y669D02*
X3614Y669D01*
X3531Y668D02*
X3614Y668D01*
X3531Y667D02*
X3614Y667D01*
X3531Y666D02*
X3614Y666D01*
X3531Y665D02*
X3614Y665D01*
X3531Y664D02*
X3614Y664D01*
X3531Y663D02*
X3614Y663D01*
X3531Y662D02*
X3614Y662D01*
X3531Y661D02*
X3614Y661D01*
X3531Y660D02*
X3614Y660D01*
X3531Y659D02*
X3614Y659D01*
X3531Y658D02*
X3614Y658D01*
X3531Y657D02*
X3614Y657D01*
X3532Y656D02*
X3614Y656D01*
D02*
G04 End of Mask0*
M02*